<mxfile host="www.draw.io" modified="2019-12-18T08:59:09.129Z" agent="Mozilla/5.0 (Windows NT 10.0; Win64; x64) AppleWebKit/537.36 (KHTML, like Gecko) Chrome/79.0.3945.79 Safari/537.36" etag="X1QN3drXHpZ0_wshjwtC" version="12.4.3" type="github" pages="1">
  <diagram id="Dgak_L7jiWaDeRtWxyvD" name="Page-1">
    <mxGraphModel dx="868" dy="450" grid="1" gridSize="10" guides="1" tooltips="1" connect="1" arrows="1" fold="1" page="1" pageScale="1" pageWidth="850" pageHeight="1100" math="0" shadow="0">
      <root>
        <mxCell id="0"/>
        <mxCell id="1" parent="0"/>
        <mxCell id="SUQ-Pz5zYZZ1wazfoTg2-6" value="" style="edgeStyle=orthogonalEdgeStyle;rounded=0;orthogonalLoop=1;jettySize=auto;html=1;strokeWidth=3;" edge="1" parent="1" source="SUQ-Pz5zYZZ1wazfoTg2-1" target="SUQ-Pz5zYZZ1wazfoTg2-3">
          <mxGeometry relative="1" as="geometry"/>
        </mxCell>
        <mxCell id="SUQ-Pz5zYZZ1wazfoTg2-19" style="edgeStyle=orthogonalEdgeStyle;rounded=0;orthogonalLoop=1;jettySize=auto;html=1;entryX=0.553;entryY=0.125;entryDx=0;entryDy=0;entryPerimeter=0;dashed=1;strokeWidth=3;" edge="1" parent="1" source="SUQ-Pz5zYZZ1wazfoTg2-1" target="SUQ-Pz5zYZZ1wazfoTg2-10">
          <mxGeometry relative="1" as="geometry"/>
        </mxCell>
        <mxCell id="SUQ-Pz5zYZZ1wazfoTg2-1" value="PLM_Feature" style="rounded=1;whiteSpace=wrap;html=1;strokeWidth=2;" vertex="1" parent="1">
          <mxGeometry x="90" y="70" width="170" height="60" as="geometry"/>
        </mxCell>
        <mxCell id="SUQ-Pz5zYZZ1wazfoTg2-8" value="" style="edgeStyle=orthogonalEdgeStyle;rounded=0;orthogonalLoop=1;jettySize=auto;html=1;strokeWidth=3;" edge="1" parent="1" source="SUQ-Pz5zYZZ1wazfoTg2-3" target="SUQ-Pz5zYZZ1wazfoTg2-4">
          <mxGeometry relative="1" as="geometry"/>
        </mxCell>
        <mxCell id="SUQ-Pz5zYZZ1wazfoTg2-18" style="edgeStyle=orthogonalEdgeStyle;rounded=0;orthogonalLoop=1;jettySize=auto;html=1;entryX=0.5;entryY=0.088;entryDx=0;entryDy=0;entryPerimeter=0;dashed=1;strokeWidth=3;" edge="1" parent="1" source="SUQ-Pz5zYZZ1wazfoTg2-3" target="SUQ-Pz5zYZZ1wazfoTg2-11">
          <mxGeometry relative="1" as="geometry"/>
        </mxCell>
        <mxCell id="SUQ-Pz5zYZZ1wazfoTg2-3" value="PLM_Develop" style="rounded=1;whiteSpace=wrap;html=1;strokeWidth=2;" vertex="1" parent="1">
          <mxGeometry x="320" y="70" width="170" height="60" as="geometry"/>
        </mxCell>
        <mxCell id="SUQ-Pz5zYZZ1wazfoTg2-23" style="edgeStyle=orthogonalEdgeStyle;rounded=0;orthogonalLoop=1;jettySize=auto;html=1;entryX=0.453;entryY=0.05;entryDx=0;entryDy=0;entryPerimeter=0;dashed=1;strokeWidth=3;" edge="1" parent="1" source="SUQ-Pz5zYZZ1wazfoTg2-4" target="SUQ-Pz5zYZZ1wazfoTg2-12">
          <mxGeometry relative="1" as="geometry"/>
        </mxCell>
        <mxCell id="SUQ-Pz5zYZZ1wazfoTg2-4" value="PLM_Release" style="rounded=1;whiteSpace=wrap;html=1;strokeWidth=2;" vertex="1" parent="1">
          <mxGeometry x="550" y="70" width="170" height="60" as="geometry"/>
        </mxCell>
        <mxCell id="SUQ-Pz5zYZZ1wazfoTg2-10" value="&lt;font style=&quot;font-size: 15px&quot;&gt;ST&lt;/font&gt;" style="ellipse;shape=cloud;whiteSpace=wrap;html=1;strokeWidth=2;" vertex="1" parent="1">
          <mxGeometry x="70" y="310" width="190" height="80" as="geometry"/>
        </mxCell>
        <mxCell id="SUQ-Pz5zYZZ1wazfoTg2-11" value="&lt;font style=&quot;font-size: 15px&quot;&gt;QA&lt;/font&gt;" style="ellipse;shape=cloud;whiteSpace=wrap;html=1;strokeWidth=2;" vertex="1" parent="1">
          <mxGeometry x="310" y="310" width="190" height="80" as="geometry"/>
        </mxCell>
        <mxCell id="SUQ-Pz5zYZZ1wazfoTg2-12" value="&lt;font style=&quot;font-size: 15px&quot;&gt;All upper environments (UAT,Prod)&lt;/font&gt;" style="ellipse;shape=cloud;whiteSpace=wrap;html=1;strokeWidth=2;" vertex="1" parent="1">
          <mxGeometry x="550" y="310" width="190" height="80" as="geometry"/>
        </mxCell>
        <mxCell id="SUQ-Pz5zYZZ1wazfoTg2-20" value="&lt;b&gt;Jenkins ST Auto deployment job&amp;nbsp;&lt;/b&gt;" style="text;html=1;align=center;verticalAlign=middle;resizable=0;points=[];;autosize=1;rotation=90;" vertex="1" parent="1">
          <mxGeometry x="105" y="220" width="200" height="20" as="geometry"/>
        </mxCell>
        <mxCell id="SUQ-Pz5zYZZ1wazfoTg2-24" value="&lt;b&gt;QA Auto/Manual deployment job&lt;/b&gt;" style="text;html=1;rotation=90;" vertex="1" parent="1">
          <mxGeometry x="340" y="215" width="200" height="30" as="geometry"/>
        </mxCell>
        <mxCell id="SUQ-Pz5zYZZ1wazfoTg2-25" value="&lt;b&gt;Release Manual deployment job&lt;/b&gt;" style="text;html=1;rotation=90;" vertex="1" parent="1">
          <mxGeometry x="560" y="220" width="200" height="30" as="geometry"/>
        </mxCell>
      </root>
    </mxGraphModel>
  </diagram>
</mxfile>
